<?xml version="1.0" encoding="utf-8"?>
<!-- Generator: Adobe Illustrator 18.1.1, SVG Export Plug-In . SVG Version: 6.00 Build 0)  -->
<!DOCTYPE svg PUBLIC "-//W3C//DTD SVG 1.1//EN" "http://www.w3.org/Graphics/SVG/1.1/DTD/svg11.dtd">
<svg version="1.1" id="Layer_1" xmlns="http://www.w3.org/2000/svg" xmlns:xlink="http://www.w3.org/1999/xlink" x="0px" y="0px"
	 viewBox="375.1 -251 50 551.9" enable-background="new 375.1 -251 50 551.9" xml:space="preserve">
<g>
	<path fill="#FFFFFF" d="M375.1-0.7l7.9,3.3c1.4,0.5,3,1.1,4.3,1.6v0.5l-12.2,5.4v12.5v7.1v10.1h26.4c3.8,0,7.1,0,7.1,4.6
		s-3.3,4.6-7.1,4.6h-26.4v17.1h8.2c-5.4,4.9-8.2,13.9-8.2,20.7c0,14.9,9.2,26.4,24.7,26.4l0,0l-2.7,2.2c2.4,2.2,5.2,4.3,7.1,7.3
		l-3.8,4.3c-1.6-5.2-6.2-9.2-12-9.2c-9,0-13,9.8-13,17.4c0,8.2,3.8,17.4,13.3,17.4c3.8,0,6.2-1.9,9-4.6c0.5,3.5,1.9,6.8,4.1,9h-26.6
		V174h49.2l0-17.1h-6.2c4.3-3.5,6.2-9.8,6.2-16c0-5.7-1.1-10.1-4.3-14.9l4.3-3.8v-19.8L413.2,114l-2.4-3
		c8.4-4.1,13.3-13.3,13.3-23.6c0-7.3-3.3-15.2-8.7-20.1c-1.1-0.8-1.9-1.6-3-2.2C420,61.8,424,54.8,424,45c0-13.3-7.3-22-21.2-22h-16
		l15.5-9.5h22.3V-3.4H402l-26.9-16.3V-0.7z M412.4,139.5c0,2.2-1.1,4.3-3.5,4.3c-1.6,0-2.7-1.6-3.5-2.7l6-6
		C411.8,136.5,412.4,137.6,412.4,139.5 M392.5,134.9c-0.5,1.1-2.4,2.4-3.8,2.4c-1.6,0-3-1.4-3-3c0-1.4,1.4-2.7,2.7-2.7
		C390.1,131.7,391.7,133.3,392.5,134.9 M395.5,87.9h11.1V80c3,0.8,4.1,4.3,4.1,7.1c0,5.7-4.9,9-10.1,9c-5.7,0-11.1-3.3-11.1-9.5
		c0-2.7,1.4-5.2,3.8-6.5l-4.9-13.3h7.1C395.5,66.7,395.5,87.9,395.5,87.9z"/>
	<path fill="#FFFFFF" d="M409.4,245.2c0,5.2-3.8,9-9.2,9c-5.2,0-9.2-3.3-9.2-9c0-5.4,4.3-9,9.2-9
		C405.6,236.5,409.4,240.1,409.4,245.2 M375.1,187.4v4.9h14.1h10.6l-24.7,14.7v16.6h10.6c-6.5,4.6-10.6,12.8-10.6,21.7
		c0,7.6,2.7,14.7,7.6,19.6h-7.6V301h16.6l-0.5-9.5h33.2v-17.1h-33.2l0.3-4.3c2.4,0.8,5.4,1.4,8.4,1.4c15.2,0,24.5-11.7,24.5-26.1
		c0-9.2-3.5-17.1-10.1-21.7h10.3v-8.2v-8.4l0,0h-25.8l25.5-14.7V176h-49.2L375.1,187.4z"/>
	<g>
		<path fill="#FFFFFF" d="M417-26c5.2,0,8.2,4.9,8.2,9.8c0,4.9-3,9.8-8.2,9.8c-5.2,0-8.2-4.9-8.2-9.8C408.8-20.8,411.8-26,417-26z"
			/>
		<path fill="#FFFFFF" d="M375.1-35.7v-18.5L401-61v-0.5c-2.2-0.3-4.3-0.5-6.5-1.4l-19.3-5.4v-18.2l49.2-8.2v17.4l-26.9,2.4v0.3
			c1.6,0.3,3.3,0.5,4.9,1.1l22,7.1v10.3l-20.9,6.5c-2.2,0.5-4.1,1.1-6.2,1.1v0.5c1.9,0,4.1,0.3,6,0.5l20.9,2.2l0,17.4L375.1-35.7z"
			/>
		<path fill="#FFFFFF" d="M375.1-95l0-33.2h13.6v14.9h4.6V-127h12.8v13.9h4.9v-15.5h13.3l0,33.7H375.1z"/>
		<path fill="#FFFFFF" d="M375.1-131.1v-18.2c0-16.6,7.3-29.1,25.3-29.1c14.7,0,23.9,10.3,23.9,24.7v22.6H375.1z M409.6-148.8v-1.1
			c0-6-2.7-10.6-9.2-10.6c-6.8,0-9.8,4.1-9.8,10.6v1.1H409.6z"/>
		<path fill="#FFFFFF" d="M375.1-179.8v-17.9h49.2v17.9H375.1z"/>
		<path fill="#FFFFFF" d="M424.3-215.1v19l-49.2-17.4v-19.8l49.2-17.7v19l-6.2,1.6v13.6L424.3-215.1z M406.7-227l-8.7,2.2
			c-2.2,0.5-4.3,0.8-6.2,1.1v0.5l14.9,3.3V-227z"/>
	</g>
</g>
</svg>
