<?xml version="1.0" encoding="utf-8"?>
<!-- Generator: Adobe Illustrator 18.1.1, SVG Export Plug-In . SVG Version: 6.00 Build 0)  -->
<!DOCTYPE svg PUBLIC "-//W3C//DTD SVG 1.1//EN" "http://www.w3.org/Graphics/SVG/1.1/DTD/svg11.dtd">
<svg version="1.1" id="Layer_1" xmlns="http://www.w3.org/2000/svg" xmlns:xlink="http://www.w3.org/1999/xlink" x="0px" y="0px"
	 viewBox="0 0 203 18.4" enable-background="new 0 0 203 18.4" xml:space="preserve">
<g>
	<path fill="#FFFFFF" d="M111,0l-1.2,2.9c-0.2,0.5-0.4,1.1-0.6,1.6H109L107,0h-4.6h-2.6h-3.7v9.7c0,1.4,0,2.6-1.7,2.6
		c-1.7,0-1.7-1.2-1.7-2.6V0h-6.3v3c-1.8-2-5.1-3-7.6-3c-5.5,0-9.7,3.4-9.7,9.1c0,0,0,0,0,0l-0.8-1c-0.8,0.9-1.6,1.9-2.7,2.6L64,9.3
		c1.9-0.6,3.4-2.3,3.4-4.4c0-3.3-3.6-4.8-6.4-4.8c-3,0-6.4,1.4-6.4,4.9c0,1.4,0.7,2.3,1.7,3.3C55,8.5,53.8,9,53,9.8L53,0h-6.3
		l0,18.1H53l0-2.3c1.3,1.6,3.6,2.3,5.9,2.3c2.1,0,3.7-0.4,5.5-1.6l1.4,1.6h7.3L68.8,14l1.1-0.9c1.5,3.1,4.9,4.9,8.7,4.9
		c2.7,0,5.6-1.2,7.4-3.2c0.3-0.4,0.6-0.7,0.8-1.1c1.2,2.8,3.8,4.3,7.4,4.3c4.9,0,8.1-2.7,8.1-7.8V4.3l3.5,5.7v8.2h6.2V9.9l6-9.9H111
		z M59.4,13.7c-0.8,0-1.6-0.4-1.6-1.3c0-0.6,0.6-1,1-1.3l2.2,2.2C60.5,13.5,60.1,13.7,59.4,13.7 M61.1,6.4c-0.4-0.2-0.9-0.9-0.9-1.4
		c0-0.6,0.5-1.1,1.1-1.1c0.5,0,1,0.5,1,1C62.3,5.5,61.7,6.1,61.1,6.4 M78.4,7.5v4.1h2.9c-0.3,1.1-1.6,1.5-2.6,1.5
		c-2.1,0-3.3-1.8-3.3-3.7c0-2.1,1.2-4.1,3.5-4.1c1,0,1.9,0.5,2.4,1.4l4.9-1.8v2.6H78.4z"/>
	<path fill="#FFFFFF" d="M20.5,12.6c-1.9,0-3.3-1.4-3.3-3.4c0-1.9,1.2-3.4,3.3-3.4c2,0,3.3,1.6,3.3,3.4
		C23.7,11.2,22.4,12.6,20.5,12.6 M41.8,0h-1.8v5.2v3.9L34.6,0h-6.1l0,3.9c-1.7-2.4-4.7-3.9-8-3.9c-2.8,0-5.4,1-7.2,2.8V0H0v6.1
		l3.5-0.2l0,12.2h6.3l0-12.2L11.4,6c-0.3,0.9-0.5,2-0.5,3.1c0,5.6,4.3,9,9.6,9c3.4,0,6.3-1.3,8-3.7l0,3.8h3h3.1h0V8.7l5.4,9.4H46
		L46,0H41.8z"/>
	<g>
		<path fill="#FFFFFF" d="M120.3,15.4c0,1.9-1.8,3-3.6,3c-1.8,0-3.6-1.1-3.6-3c0-1.9,1.8-3,3.6-3C118.4,12.4,120.3,13.5,120.3,15.4z
			"/>
		<path fill="#FFFFFF" d="M123.9,0h6.8l2.5,9.5h0.2c0.1-0.8,0.2-1.6,0.5-2.4l2-7.1h6.7l3,18.1h-6.4l-0.9-9.9h-0.1
			c-0.1,0.6-0.2,1.2-0.4,1.8l-2.6,8.1h-3.8l-2.4-7.7c-0.2-0.8-0.4-1.5-0.4-2.3h-0.2c0,0.7-0.1,1.5-0.2,2.2l-0.8,7.7H121L123.9,0z"/>
		<path fill="#FFFFFF" d="M145.7,0h12.2V5h-5.5v1.7h5.1v4.7h-5.1v1.8h5.7v4.9h-12.4V0z"/>
		<path fill="#FFFFFF" d="M159,0h6.7c6.1,0,10.7,2.7,10.7,9.3c0,5.4-3.8,8.8-9.1,8.8H159V0z M165.5,12.7h0.4c2.2,0,3.9-1,3.9-3.4
			c0-2.5-1.5-3.6-3.9-3.6h-0.4V12.7z"/>
		<path fill="#FFFFFF" d="M176.9,0h6.6v18.1h-6.6V0z"/>
		<path fill="#FFFFFF" d="M189.9,18.1h-7L189.3,0h7.3l6.5,18.1h-7l-0.6-2.3h-5L189.9,18.1z M194.3,11.6l-0.8-3.2
			c-0.2-0.8-0.3-1.6-0.4-2.3h-0.2l-1.2,5.5H194.3z"/>
	</g>
</g>
</svg>
